STARTFONT 2.1
COMMENT Recovered from arc.ast's:ARR10 AST (MIT CADR AST source recovered from ARC!!!)
FONT MIT-CADR-ARR10
SIZE 30 72 72
FONTBOUNDINGBOX 16 30 0 0
STARTPROPERTIES 2
FONT_ASCENT 30
FONT_DESCENT 0
ENDPROPERTIES
CHARS 67
STARTCHAR C0005
ENCODING -1 5
SWIDTH 533 0
DWIDTH 16 0
BBX 16 30 0 0
BITMAP
0000
0000
0000
0000
0000
0000
0000
0000
0000
0000
0000
0000
0000
0000
0000
0000
0000
0000
0000
0000
0000
0000
0000
0000
0000
0000
0000
0000
0000
0000
ENDCHAR
STARTCHAR C0013
ENCODING -1 19
SWIDTH 0 0
DWIDTH 0 0
BBX 16 30 0 0
BITMAP
0000
0000
0000
0000
0000
0000
0000
0000
0000
0000
0000
0000
0000
0000
0000
0000
0000
0000
0000
0000
0000
0000
0000
0000
0000
0000
0000
0000
0000
0000
ENDCHAR
STARTCHAR C0021
ENCODING -1 33
SWIDTH 533 0
DWIDTH 16 0
BBX 16 30 0 0
BITMAP
E000
FC00
FF80
7FF0
7FFE
7FFF
3FFF
3FFF
3F1F
1F03
1F00
1F80
0F80
0F80
0FC0
07C0
07C0
07E0
03E0
03E0
03F0
01F0
01F0
01F8
00F8
00F8
00FC
0078
0070
0060
ENDCHAR
STARTCHAR C0023
ENCODING -1 35
SWIDTH 533 0
DWIDTH 16 0
BBX 16 30 0 0
BITMAP
0060
0070
0078
00FC
00F8
00F8
01F8
01F0
01F0
03F0
03E0
03E0
07E0
07C0
07C0
0FC0
0F80
0F80
1F80
1F00
1F03
3F1F
3FFF
3FFF
7FFF
7FFE
7FF0
FF80
FC00
E000
ENDCHAR
STARTCHAR C0024
ENCODING -1 36
SWIDTH 533 0
DWIDTH 16 0
BBX 16 30 0 0
BITMAP
0000
0000
FC00
FC00
7E00
7E00
3F00
3F00
1F80
1F80
0FC0
0FC0
07E0
07E0
03F0
03F0
01F9
01F9
00FF
00FF
007F
007F
003F
003F
001F
001F
000F
000F
0006
0006
ENDCHAR
STARTCHAR C0025
ENCODING -1 37
SWIDTH 533 0
DWIDTH 16 0
BBX 16 30 0 0
BITMAP
0000
0000
0000
0000
0000
0000
0000
0000
0000
0000
0000
0000
0000
0000
0000
0000
1000
3E00
7FC0
FFF8
FFFF
1FFF
03FF
007F
000F
0001
0000
0000
0000
0000
ENDCHAR
STARTCHAR C0026
ENCODING -1 38
SWIDTH 533 0
DWIDTH 16 0
BBX 16 30 0 0
BITMAP
0000
0000
0000
0000
0001
000F
007F
03FF
1FFF
FFFF
FFF8
7FC0
3E00
1000
0000
0000
0000
0000
0000
0000
0000
0000
0000
0000
0000
0000
0000
0000
0000
0000
ENDCHAR
STARTCHAR C002A
ENCODING -1 42
SWIDTH 533 0
DWIDTH 16 0
BBX 16 30 0 0
BITMAP
0000
0000
0006
0006
000F
000F
001F
001F
003F
003F
007F
007F
00FF
00FF
01F9
01F9
03F0
03F0
07E0
07E0
0FC0
0FC0
1F80
1F80
3F00
3F00
7E00
7E00
FC00
FC00
ENDCHAR
STARTCHAR C002C
ENCODING -1 44
SWIDTH 200 0
DWIDTH 6 0
BBX 16 30 0 0
BITMAP
0000
0000
0000
0000
0000
0000
0000
0000
0000
0000
0000
0000
0000
0000
0000
0000
0000
0000
0000
0000
0000
0000
0000
0000
3000
3000
7800
7800
FC00
FC00
ENDCHAR
STARTCHAR C0031
ENCODING -1 49
SWIDTH 533 0
DWIDTH 16 0
BBX 16 30 0 0
BITMAP
0000
0000
0000
0000
E000
FC00
FF80
7FF0
7FFE
7FFF
3FFF
3FFF
3FFF
1FFF
1FFF
1FFF
0FFF
0FFF
0FFF
07FF
07FF
07FF
03FF
03FE
03FC
01F8
01F0
01E0
00C0
0080
ENDCHAR
STARTCHAR C0032
ENCODING -1 50
SWIDTH 533 0
DWIDTH 16 0
BBX 16 30 0 0
BITMAP
0000
0000
0000
0000
0000
0000
0000
0000
0000
0000
0003
000F
003F
00FF
03FF
0FFF
3FFF
FFFF
FFFF
3FFF
0FFF
03FF
00FF
003F
000F
0003
0000
0000
0000
0000
ENDCHAR
STARTCHAR C0033
ENCODING -1 51
SWIDTH 533 0
DWIDTH 16 0
BBX 16 30 0 0
BITMAP
0000
0000
0000
0000
0080
00C0
01E0
01F0
01F8
03FC
03FE
03FF
07FF
07FF
07FF
0FFF
0FFF
0FFF
1FFF
1FFF
1FFF
3FFF
3FFF
3FFF
7FFF
7FFE
7FF0
FF80
FC00
E000
ENDCHAR
STARTCHAR C0034
ENCODING -1 52
SWIDTH 533 0
DWIDTH 16 0
BBX 16 30 0 0
BITMAP
0000
0000
0000
0000
0000
0000
FFFF
FFFF
7FFF
7FFF
3FFF
3FFF
1FFF
1FFF
0FFF
0FFF
07FF
07FF
03FF
03FF
01FF
01FF
00FF
00FF
007E
007E
003C
003C
0018
0018
ENDCHAR
STARTCHAR C0035
ENCODING -1 53
SWIDTH 533 0
DWIDTH 16 0
BBX 16 30 0 0
BITMAP
0000
0000
0000
0000
0000
0000
0001
0003
0007
000F
001F
003F
007F
00FF
01FF
03FF
07FF
0FFF
1FFF
3FFF
7FFF
FFFF
3FFF
07FF
00FF
001F
0003
0000
0000
0000
ENDCHAR
STARTCHAR C0036
ENCODING -1 54
SWIDTH 533 0
DWIDTH 16 0
BBX 16 30 0 0
BITMAP
0000
0000
0000
0000
0000
0000
C000
F000
FC00
FF00
FFC0
FFF0
FFFC
FFFF
FFFF
FFFF
FFFF
FFFF
FFFF
FFFF
FFFF
FFFF
FFFF
FFFC
FFF0
FFC0
FF00
FC00
F000
C000
ENDCHAR
STARTCHAR C0037
ENCODING -1 55
SWIDTH 533 0
DWIDTH 16 0
BBX 16 30 0 0
BITMAP
0000
0000
0000
0000
0000
0000
0000
0003
001F
00FF
07FF
3FFF
FFFF
7FFF
3FFF
1FFF
0FFF
07FF
03FF
01FF
00FF
007F
003F
001F
000F
0007
0003
0001
0000
0000
ENDCHAR
STARTCHAR C0038
ENCODING -1 56
SWIDTH 533 0
DWIDTH 16 0
BBX 16 30 0 0
BITMAP
0000
0000
0000
0000
0000
0000
0018
0018
003C
003C
007E
007E
00FF
00FF
01FF
01FF
03FF
03FF
07FF
07FF
0FFF
0FFF
1FFF
1FFF
3FFF
3FFF
7FFF
7FFF
FFFF
FFFF
ENDCHAR
STARTCHAR C003C
ENCODING -1 60
SWIDTH 233 0
DWIDTH 7 0
BBX 16 30 0 0
BITMAP
0000
0000
0000
0000
0000
0000
0000
0000
0000
0000
0000
0000
0000
0000
0000
0000
0000
0000
0000
0000
0000
0000
0000
1000
2800
2800
4400
4400
8200
8200
ENDCHAR
STARTCHAR C003F
ENCODING -1 63
SWIDTH 33 0
DWIDTH 1 0
BBX 16 30 0 0
BITMAP
0000
0000
0000
0000
0000
0000
0000
0000
0000
0000
0000
0000
0000
0000
0000
0000
0000
0000
0000
0000
0000
0000
0000
0000
0000
0000
0000
0000
0000
0000
ENDCHAR
STARTCHAR C0040
ENCODING -1 64
SWIDTH 533 0
DWIDTH 16 0
BBX 16 30 0 0
BITMAP
0000
0000
0000
0000
0000
0000
0000
0000
0003
000F
003F
00FF
03FF
0FFF
3FFC
FFF0
FFF0
3FFC
0FFF
03FF
00FF
003F
000F
0003
0000
0000
0000
0000
0000
0000
ENDCHAR
STARTCHAR C0041
ENCODING -1 65
SWIDTH 333 0
DWIDTH 10 0
BBX 16 30 0 0
BITMAP
0000
0000
0000
0000
0000
0000
0000
0000
0000
0000
0000
0000
0000
0000
0000
0000
0000
0000
0000
0000
E000
BC00
C780
40C0
4000
6000
2000
2000
3000
1000
ENDCHAR
STARTCHAR C0042
ENCODING -1 66
SWIDTH 233 0
DWIDTH 7 0
BBX 16 30 0 0
BITMAP
0000
0000
0000
0000
0000
0000
0000
0000
0000
0000
0000
0000
0000
0000
0000
0000
0000
0000
0000
0000
0000
0000
0000
0800
0400
0400
0400
8200
7200
0E00
ENDCHAR
STARTCHAR C0043
ENCODING -1 67
SWIDTH 233 0
DWIDTH 7 0
BBX 16 30 0 0
BITMAP
0000
0000
0000
0000
0000
0000
0000
0000
0000
0000
0000
0000
0000
0000
0000
0000
0000
0000
0000
0000
0000
0000
0000
2000
4000
4000
4000
8200
9C00
E000
ENDCHAR
STARTCHAR C0044
ENCODING -1 68
SWIDTH 333 0
DWIDTH 10 0
BBX 16 30 0 0
BITMAP
0000
0000
0000
0000
0000
0000
0000
0000
0000
0000
0000
0000
0000
0000
0000
0000
0000
0000
0000
1000
3000
2000
2000
6000
4000
40C0
C780
FC00
E000
0000
ENDCHAR
STARTCHAR C0045
ENCODING -1 69
SWIDTH 500 0
DWIDTH 15 0
BBX 16 30 0 0
BITMAP
0000
0000
0000
0000
0000
0000
0000
0000
0000
0000
0000
0000
0000
0000
0000
0E00
0E00
0E00
1C00
1C00
1C00
3800
3800
380E
707E
73FE
7FF0
FF80
FC00
E000
ENDCHAR
STARTCHAR C0046
ENCODING -1 70
SWIDTH 300 0
DWIDTH 9 0
BBX 16 30 0 0
BITMAP
0000
0000
0000
0000
0000
0000
0000
0000
0000
0000
0000
0000
0000
0000
0000
0000
0000
0000
0000
0000
0000
8080
C180
4100
6300
2200
3600
1400
1C00
0800
ENDCHAR
STARTCHAR C0047
ENCODING -1 71
SWIDTH 333 0
DWIDTH 10 0
BBX 16 30 0 0
BITMAP
0000
0000
0000
0000
0000
0000
0000
0000
0000
0000
0000
0000
0000
0000
0000
0000
0000
0000
0000
0000
0200
0300
0100
0100
0180
0080
C080
78C0
0FC0
01C0
ENDCHAR
STARTCHAR C0048
ENCODING -1 72
SWIDTH 333 0
DWIDTH 10 0
BBX 16 30 0 0
BITMAP
0000
0000
0000
0000
0000
0000
0000
0000
0000
0000
0000
0000
0000
0000
0000
0000
0000
0000
0000
0000
0000
C000
7000
1C00
0700
01C0
0700
1C00
7000
C000
ENDCHAR
STARTCHAR C0049
ENCODING -1 73
SWIDTH 467 0
DWIDTH 14 0
BBX 16 30 0 0
BITMAP
0000
0000
0000
0000
0000
0000
0000
0000
0000
0000
0000
0000
0000
0000
0000
0000
0300
0300
0780
0780
0FC0
0FC0
1CE0
1CE0
3870
3870
7038
7038
E01C
E01C
ENDCHAR
STARTCHAR C004A
ENCODING -1 74
SWIDTH 333 0
DWIDTH 10 0
BBX 16 30 0 0
BITMAP
0000
0000
0000
0000
0000
0000
0000
0000
0000
0000
0000
0000
0000
0000
0000
0000
0000
0000
0000
0000
01C0
0FC0
78C0
C080
0080
0180
0100
0100
0300
0200
ENDCHAR
STARTCHAR C004B
ENCODING -1 75
SWIDTH 300 0
DWIDTH 9 0
BBX 16 30 0 0
BITMAP
0000
0000
0000
0000
0000
0000
0000
0000
0000
0000
0000
0000
0000
0000
0000
0000
0000
0000
0000
0000
0000
0800
1C00
1400
3600
2200
6300
4100
C180
8080
ENDCHAR
STARTCHAR C004D
ENCODING -1 77
SWIDTH 233 0
DWIDTH 7 0
BBX 16 30 0 0
BITMAP
0000
0000
0000
0000
0000
0000
0000
0000
0000
0000
0000
0000
0000
0000
0000
0000
0000
0000
0000
0000
0000
0000
0000
0E00
7200
8200
0400
0400
0400
0800
ENDCHAR
STARTCHAR C004E
ENCODING -1 78
SWIDTH 233 0
DWIDTH 7 0
BBX 16 30 0 0
BITMAP
0000
0000
0000
0000
0000
0000
0000
0000
0000
0000
0000
0000
0000
0000
0000
0000
0000
0000
0000
0000
0000
0000
0000
C000
3000
0C00
0200
0C00
3000
C000
ENDCHAR
STARTCHAR C0051
ENCODING -1 81
SWIDTH 500 0
DWIDTH 15 0
BBX 16 30 0 0
BITMAP
0000
0000
0000
0000
0000
0000
0000
0000
0000
0000
0000
0000
0000
0000
0000
E000
FC00
FF80
7FF0
73FE
707E
380E
3800
3800
1C00
1C00
1C00
0E00
0E00
0E00
ENDCHAR
STARTCHAR C0052
ENCODING -1 82
SWIDTH 467 0
DWIDTH 14 0
BBX 16 30 0 0
BITMAP
0000
0000
0000
0000
0000
0000
0000
0000
0000
0000
0000
0000
0000
0000
0000
0000
E01C
E01C
7038
7038
3870
3870
1CE0
1CE0
0FC0
0FC0
0780
0780
0300
0300
ENDCHAR
STARTCHAR C0053
ENCODING -1 83
SWIDTH 300 0
DWIDTH 9 0
BBX 16 30 0 0
BITMAP
0000
0000
0000
0000
0000
0000
0000
0000
0000
0000
0000
0000
0000
0000
0000
0000
0000
0000
0000
0000
0000
0180
0700
1C00
7000
C000
7000
1C00
0700
0180
ENDCHAR
STARTCHAR C0054
ENCODING -1 84
SWIDTH 500 0
DWIDTH 15 0
BBX 16 30 0 0
BITMAP
0000
0000
0000
0000
0000
0000
0000
0000
0000
0000
0000
0000
0000
0000
0000
00E0
00E0
00E0
0070
0070
0070
0038
0038
E038
FC1C
FF9C
1FFC
03FE
007E
000E
ENDCHAR
STARTCHAR C0055
ENCODING -1 85
SWIDTH 500 0
DWIDTH 15 0
BBX 16 30 0 0
BITMAP
0000
0000
0000
0000
0000
0000
0000
0000
0000
0000
0000
0000
0000
0000
0000
000E
007E
03FE
1FFC
FF9C
FC1C
E038
0038
0038
0070
0070
0070
00E0
00E0
00E0
ENDCHAR
STARTCHAR C0056
ENCODING -1 86
SWIDTH 233 0
DWIDTH 7 0
BBX 16 30 0 0
BITMAP
0000
0000
0000
0000
0000
0000
0000
0000
0000
0000
0000
0000
0000
0000
0000
0000
0000
0000
0000
0000
0000
0000
0000
8200
8200
4400
4400
2800
2800
1000
ENDCHAR
STARTCHAR C0057
ENCODING -1 87
SWIDTH 467 0
DWIDTH 14 0
BBX 16 30 0 0
BITMAP
0000
0000
0000
0000
0000
0000
0000
0000
0000
0000
0000
0000
0000
0000
0000
0000
000C
003C
00FC
03F0
0FC0
3F00
FC00
FC00
3F00
0FC0
03F0
00FC
003C
000C
ENDCHAR
STARTCHAR C0058
ENCODING -1 88
SWIDTH 233 0
DWIDTH 7 0
BBX 16 30 0 0
BITMAP
0000
0000
0000
0000
0000
0000
0000
0000
0000
0000
0000
0000
0000
0000
0000
0000
0000
0000
0000
0000
0000
0000
0000
0600
1800
6000
8000
6000
1800
0600
ENDCHAR
STARTCHAR C0059
ENCODING -1 89
SWIDTH 467 0
DWIDTH 14 0
BBX 16 30 0 0
BITMAP
0000
0000
0000
0000
0000
0000
0000
0000
0000
0000
0000
0000
0000
0000
0000
0000
C000
F000
FC00
3F00
0FC0
03F0
00FC
00FC
03F0
0FC0
3F00
FC00
F000
C000
ENDCHAR
STARTCHAR C005A
ENCODING -1 90
SWIDTH 233 0
DWIDTH 7 0
BBX 16 30 0 0
BITMAP
0000
0000
0000
0000
0000
0000
0000
0000
0000
0000
0000
0000
0000
0000
0000
0000
0000
0000
0000
0000
0000
0000
0000
E000
9C00
8200
4000
4000
4000
2000
ENDCHAR
STARTCHAR C0061
ENCODING -1 97
SWIDTH 300 0
DWIDTH 9 0
BBX 16 30 0 0
BITMAP
0000
0000
0000
0000
0000
0000
0000
0000
0000
0000
0000
0000
0000
0000
0000
0000
0000
0000
0000
0000
0000
E000
FC00
FF80
7F00
7E00
7C00
3800
3000
2000
ENDCHAR
STARTCHAR C0062
ENCODING -1 98
SWIDTH 200 0
DWIDTH 6 0
BBX 16 30 0 0
BITMAP
0000
0000
0000
0000
0000
0000
0000
0000
0000
0000
0000
0000
0000
0000
0000
0000
0000
0000
0000
0000
0000
0000
0000
0000
1800
3800
7800
FC00
FC00
1C00
ENDCHAR
STARTCHAR C0063
ENCODING -1 99
SWIDTH 200 0
DWIDTH 6 0
BBX 16 30 0 0
BITMAP
0000
0000
0000
0000
0000
0000
0000
0000
0000
0000
0000
0000
0000
0000
0000
0000
0000
0000
0000
0000
0000
0000
0000
0000
6000
7000
7800
FC00
FC00
E000
ENDCHAR
STARTCHAR C0064
ENCODING -1 100
SWIDTH 300 0
DWIDTH 9 0
BBX 16 30 0 0
BITMAP
0000
0000
0000
0000
0000
0000
0000
0000
0000
0000
0000
0000
0000
0000
0000
0000
0000
0000
0000
0000
0000
2000
3000
3800
7C00
7E00
7F00
FF80
FC00
E000
ENDCHAR
STARTCHAR C0065
ENCODING -1 101
SWIDTH 433 0
DWIDTH 13 0
BBX 16 30 0 0
BITMAP
0000
0000
0000
0000
0000
0000
0000
0000
0000
0000
0000
0000
0000
0000
0000
0000
0000
0800
1C00
1E00
1F00
3F80
3FC0
3FE0
7FF0
7FF8
7FF0
FF80
FC00
E000
ENDCHAR
STARTCHAR C0066
ENCODING -1 102
SWIDTH 267 0
DWIDTH 8 0
BBX 16 30 0 0
BITMAP
0000
0000
0000
0000
0000
0000
0000
0000
0000
0000
0000
0000
0000
0000
0000
0000
0000
0000
0000
0000
0000
0000
FF00
FF00
7E00
7E00
3C00
3C00
1800
1800
ENDCHAR
STARTCHAR C0067
ENCODING -1 103
SWIDTH 300 0
DWIDTH 9 0
BBX 16 30 0 0
BITMAP
0000
0000
0000
0000
0000
0000
0000
0000
0000
0000
0000
0000
0000
0000
0000
0000
0000
0000
0000
0000
0000
0200
0600
0E00
1F00
3F00
7F00
FF80
1F80
0380
ENDCHAR
STARTCHAR C0068
ENCODING -1 104
SWIDTH 267 0
DWIDTH 8 0
BBX 16 30 0 0
BITMAP
0000
0000
0000
0000
0000
0000
0000
0000
0000
0000
0000
0000
0000
0000
0000
0000
0000
0000
0000
0000
0000
0000
C000
F000
FC00
FF00
FF00
FC00
F000
C000
ENDCHAR
STARTCHAR C0069
ENCODING -1 105
SWIDTH 400 0
DWIDTH 12 0
BBX 16 30 0 0
BITMAP
0000
0000
0000
0000
0000
0000
0000
0000
0000
0000
0000
0000
0000
0000
0000
0000
0000
0000
0600
0600
0F00
0F00
1F80
1F80
3FC0
3FC0
7FE0
7FE0
FFF0
FFF0
ENDCHAR
STARTCHAR C006A
ENCODING -1 106
SWIDTH 300 0
DWIDTH 9 0
BBX 16 30 0 0
BITMAP
0000
0000
0000
0000
0000
0000
0000
0000
0000
0000
0000
0000
0000
0000
0000
0000
0000
0000
0000
0000
0000
0380
1F80
FF80
7F00
3F00
1F00
0E00
0600
0200
ENDCHAR
STARTCHAR C006B
ENCODING -1 107
SWIDTH 267 0
DWIDTH 8 0
BBX 16 30 0 0
BITMAP
0000
0000
0000
0000
0000
0000
0000
0000
0000
0000
0000
0000
0000
0000
0000
0000
0000
0000
0000
0000
0000
0000
1800
1800
3C00
3C00
7E00
7E00
FF00
FF00
ENDCHAR
STARTCHAR C006D
ENCODING -1 109
SWIDTH 200 0
DWIDTH 6 0
BBX 16 30 0 0
BITMAP
0000
0000
0000
0000
0000
0000
0000
0000
0000
0000
0000
0000
0000
0000
0000
0000
0000
0000
0000
0000
0000
0000
0000
0000
1C00
FC00
FC00
7800
3800
1800
ENDCHAR
STARTCHAR C006E
ENCODING -1 110
SWIDTH 200 0
DWIDTH 6 0
BBX 16 30 0 0
BITMAP
0000
0000
0000
0000
0000
0000
0000
0000
0000
0000
0000
0000
0000
0000
0000
0000
0000
0000
0000
0000
0000
0000
0000
8000
E000
F800
FC00
F800
E000
8000
ENDCHAR
STARTCHAR C0071
ENCODING -1 113
SWIDTH 433 0
DWIDTH 13 0
BBX 16 30 0 0
BITMAP
0000
0000
0000
0000
0000
0000
0000
0000
0000
0000
0000
0000
0000
0000
0000
0000
0000
E000
FC00
FF80
7FF0
7FF8
7FF0
3FE0
3FC0
3F80
1F00
1E00
1C00
0800
ENDCHAR
STARTCHAR C0072
ENCODING -1 114
SWIDTH 400 0
DWIDTH 12 0
BBX 16 30 0 0
BITMAP
0000
0000
0000
0000
0000
0000
0000
0000
0000
0000
0000
0000
0000
0000
0000
0000
0000
0000
FFF0
FFF0
7FE0
7FE0
3FC0
3FC0
1F80
1F80
0F00
0F00
0600
0600
ENDCHAR
STARTCHAR C0073
ENCODING -1 115
SWIDTH 267 0
DWIDTH 8 0
BBX 16 30 0 0
BITMAP
0000
0000
0000
0000
0000
0000
0000
0000
0000
0000
0000
0000
0000
0000
0000
0000
0000
0000
0000
0000
0000
0000
0300
0F00
3F00
FF00
FF00
3F00
0F00
0300
ENDCHAR
STARTCHAR C0074
ENCODING -1 116
SWIDTH 433 0
DWIDTH 13 0
BBX 16 30 0 0
BITMAP
0000
0000
0000
0000
0000
0000
0000
0000
0000
0000
0000
0000
0000
0000
0000
0000
0000
0080
01C0
03C0
07C0
0FE0
1FE0
3FE0
7FF0
FFF0
7FF0
0FF8
01F8
0038
ENDCHAR
STARTCHAR C0075
ENCODING -1 117
SWIDTH 433 0
DWIDTH 13 0
BBX 16 30 0 0
BITMAP
0000
0000
0000
0000
0000
0000
0000
0000
0000
0000
0000
0000
0000
0000
0000
0000
0000
0038
01F8
0FF8
7FF0
FFF0
7FF0
3FE0
1FE0
0FE0
07C0
03C0
01C0
0080
ENDCHAR
STARTCHAR C0076
ENCODING -1 118
SWIDTH 200 0
DWIDTH 6 0
BBX 16 30 0 0
BITMAP
0000
0000
0000
0000
0000
0000
0000
0000
0000
0000
0000
0000
0000
0000
0000
0000
0000
0000
0000
0000
0000
0000
0000
0000
FC00
FC00
7800
7800
3000
3000
ENDCHAR
STARTCHAR C0077
ENCODING -1 119
SWIDTH 400 0
DWIDTH 12 0
BBX 16 30 0 0
BITMAP
0000
0000
0000
0000
0000
0000
0000
0000
0000
0000
0000
0000
0000
0000
0000
0000
0000
0000
0030
00F0
03F0
0FF0
3FF0
FFF0
FFF0
3FF0
0FF0
03F0
00F0
0030
ENDCHAR
STARTCHAR C0078
ENCODING -1 120
SWIDTH 200 0
DWIDTH 6 0
BBX 16 30 0 0
BITMAP
0000
0000
0000
0000
0000
0000
0000
0000
0000
0000
0000
0000
0000
0000
0000
0000
0000
0000
0000
0000
0000
0000
0000
0400
1C00
7C00
FC00
7C00
1C00
0400
ENDCHAR
STARTCHAR C0079
ENCODING -1 121
SWIDTH 400 0
DWIDTH 12 0
BBX 16 30 0 0
BITMAP
0000
0000
0000
0000
0000
0000
0000
0000
0000
0000
0000
0000
0000
0000
0000
0000
0000
0000
C000
F000
FC00
FF00
FFC0
FFF0
FFF0
FFC0
FF00
FC00
F000
C000
ENDCHAR
STARTCHAR C007A
ENCODING -1 122
SWIDTH 200 0
DWIDTH 6 0
BBX 16 30 0 0
BITMAP
0000
0000
0000
0000
0000
0000
0000
0000
0000
0000
0000
0000
0000
0000
0000
0000
0000
0000
0000
0000
0000
0000
0000
0000
E000
FC00
FC00
7800
7000
6000
ENDCHAR
STARTCHAR C007E
ENCODING -1 126
SWIDTH 533 0
DWIDTH 16 0
BBX 16 30 0 0
BITMAP
0000
0000
C000
F000
FC00
FF00
FFC0
FFF0
3FFC
0FFF
03FF
00FF
003F
000F
0003
0000
0000
0003
000F
003F
00FF
03FF
0FFF
3FFC
FFF0
FFC0
FF00
FC00
F000
C000
ENDCHAR
ENDFONT
